Coordinates
version=1
nRows=15
nColumns=19
inDegrees=yes

Units are S.I. units (second, meters, Newtons, ...)
If the header above contains a line with 'inDegrees', this indicates whether rotational values are in degrees (yes) or radians (no).

endheader
time	pelvis_tilt	pelvis_list	pelvis_rotation	pelvis_tx	pelvis_ty	pelvis_tz	hip_flexion_r	hip_adduction_r	hip_rotation_r	knee_angle_r	knee_angle_r_beta	ankle_angle_r	hip_flexion_l	hip_adduction_l	hip_rotation_l	knee_angle_l	knee_angle_l_beta	ankle_angle_l
     15.29333333	     -0.98660236	     -6.03276286	     -6.54170314	      2.40128639	      1.02133508	      1.02330639	     24.08173831	     11.20307828	     -5.22205045	     20.25161633	      0.35345738	      5.50392106	    -16.68523287	     -7.74027829	    -14.21565592	     76.94360393	      1.34291923	    -10.71674929
     15.30000000	     -1.31308583	     -6.04407854	     -6.86439010	      2.39927417	      1.01517123	      1.02291172	     25.44875064	     10.85223999	     -6.28096006	     24.25665219	      0.42335845	      5.46799107	    -14.72425935	     -7.68855789	    -13.34134555	     80.87166063	      1.41147675	    -10.43974579
     15.30666667	     -1.18281149	     -6.24485207	     -7.18266527	      2.39720806	      1.00941353	      1.02223740	     26.16089688	     10.66015778	     -7.02001556	     28.09970114	      0.49043230	      5.90792785	    -13.29805522	     -7.80963059	    -12.69377065	     84.56110292	      1.47586967	    -10.09541620
     15.31333333	     -0.42212556	     -6.88722647	     -7.53215103	      2.39518526	      1.00441578	      1.02151747	     25.89728352	     10.92877284	     -7.47468760	     31.54516380	      0.55056697	      6.74726772	    -12.70223121	     -8.44406946	    -12.44592937	     87.96826780	      1.53533591	     -9.67386511
     15.32000000	     -1.10103524	     -6.62978417	     -7.76430675	      2.39261007	      0.99803929	      1.02055633	     27.35829979	     10.41002701	     -7.62247598	     35.20648937	      0.61446916	      7.97401309	    -10.00966545	     -8.11975598	    -11.41788844	     91.49934219	      1.59696478	     -9.15433389
     15.32666667	     -0.39681935	     -7.23245187	     -8.04848185	      2.39022546	      0.99352672	      1.01972621	     26.83266034	     10.76777444	     -7.55592296	     38.14546469	      0.66576395	      9.61858567	     -9.15268667	     -8.77901285	    -11.09244589	     94.56801343	      1.65052320	     -8.66894279
     15.33333333	     -1.24843692	     -6.94334579	     -8.24647708	      2.38731998	      0.98765953	      1.01890285	     28.09174025	     10.41671772	     -7.23455530	     41.14719367	      0.71815401	     11.43866189	     -6.06775784	     -8.51783803	    -10.06286950	     97.73422006	      1.70578393	     -8.04030718
     15.34000000	     -1.40310501	     -7.09679418	     -8.38632795	      2.38449253	      0.98312753	      1.01815674	     28.20884250	     10.50602643	     -6.87423907	     43.53691483	      0.75986251	     13.48534411	     -3.83483846	     -8.79404009	     -9.27744444	    100.54312926	      1.75480865	     -7.47776621
     15.34666667	     -0.90958679	     -7.50911110	     -8.50626803	      2.38173874	      0.97996544	      1.01756468	     27.27798791	     10.85564448	     -6.41183129	     45.38214132	      0.79206779	     15.68427718	     -2.36365722	     -9.37263767	     -8.66995924	    102.96103399	      1.79700904	     -6.94966828
     15.35333333	     -1.87939406	     -7.34540772	     -8.38678479	      2.37874035	      0.97575799	      1.01682693	     27.88717545	     10.69226623	     -6.10535308	     47.03466959	      0.82090985	     17.70106630	      1.17830195	     -9.37566371	     -7.37103441	    105.40114631	      1.83959704	     -6.42668971
     15.36000000	     -2.14678812	     -7.42674216	     -8.22094062	      2.37594870	      0.97306808	      1.01622040	     27.38631422	     10.72393361	     -5.79188582	     48.13141232	      0.84005162	     19.69309689	      3.88111601	     -9.62673811	     -6.25162305	    107.38256321	      1.87417929	     -5.97892826
     15.36666667	     -2.36769645	     -7.51321308	     -7.88326483	      2.37334080	      0.97114909	      1.01556111	     26.57921947	     10.68662571	     -5.63978224	     48.77996812	      0.85137105	     21.52937902	      6.62281591	     -9.84241542	     -4.98511817	    109.02882189	      1.90291192	     -5.58005134
     15.37333333	     -2.67254951	     -7.47591445	     -7.47516193	      2.37087879	      0.96984974	      1.01494773	     25.65365486	     10.53372508	     -5.48322146	     49.04237334	      0.85595089	     23.15701483	      9.51605017	     -9.87702292	     -3.69525119	    110.31329819	      1.92533026	     -5.20058224
     15.38000000	     -2.98715149	     -7.36590597	     -7.01955019	      2.36872637	      0.96925351	      1.01437217	     24.52935157	     10.29783671	     -5.36402404	     48.94440002	      0.85424093	     24.56262487	     12.41244419	     -9.77052204	     -2.44808306	    111.20329461	      1.94086363	     -4.86116820
     15.38666667	     -3.33449992	     -7.16208052	     -6.50687884	      2.36679900	      0.96927033	      1.01379686	     23.27443145	      9.94998936	     -5.30504270	     48.53270653	      0.84705552	     25.70550770	     15.32078290	     -9.49025708	     -1.26042475	    111.71150856	      1.94973364	     -4.53464410
